<svg id="Layer_1" data-name="Layer 1" xmlns="http://www.w3.org/2000/svg" xmlns:xlink="http://www.w3.org/1999/xlink" viewBox="0 0 1920 1079"><defs><style>.cls-1{fill:none;}.cls-2{fill:url(#linear-gradient);}.cls-3{fill:url(#linear-gradient-2);}.cls-4{clip-path:url(#clip-path);}.cls-5{fill:#fff;}.cls-6{clip-path:url(#clip-path-2);}.cls-7{fill:url(#linear-gradient-4);}.cls-8{clip-path:url(#clip-path-3);}.cls-9{fill:url(#linear-gradient-5);}.cls-10{clip-path:url(#clip-path-4);}.cls-11{fill:url(#linear-gradient-7);}.cls-12{clip-path:url(#clip-path-5);}.cls-13{fill:url(#linear-gradient-8);}</style><linearGradient id="linear-gradient" x1="786.11" y1="259.04" x2="1197.25" y2="259.04" gradientUnits="userSpaceOnUse"><stop offset="0" stop-color="#f7f7f7"/><stop offset="0.1" stop-color="#f1f1f1"/><stop offset="0.22" stop-color="#e0e0e0"/><stop offset="0.37" stop-color="#c4c4c4"/><stop offset="0.53" stop-color="#9d9d9d"/><stop offset="0.7" stop-color="#6b6b6b"/><stop offset="0.88" stop-color="#2f2f2f"/><stop offset="1"/></linearGradient><linearGradient id="linear-gradient-2" x1="774.66" y1="502.36" x2="1184.85" y2="502.36" gradientUnits="userSpaceOnUse"><stop offset="0" stop-color="#231f20"/><stop offset="0.02" stop-color="#2f2b2c"/><stop offset="0.12" stop-color="#5f5c5d"/><stop offset="0.22" stop-color="#8a8889"/><stop offset="0.33" stop-color="#aeadad"/><stop offset="0.44" stop-color="#cccbcb"/><stop offset="0.56" stop-color="#e2e2e2"/><stop offset="0.68" stop-color="#f2f2f2"/><stop offset="0.82" stop-color="#fcfcfc"/><stop offset="1" stop-color="#fff"/></linearGradient><clipPath id="clip-path"><rect class="cls-1" width="1920" height="1080"/></clipPath><clipPath id="clip-path-2"><path class="cls-2" d="M936.09,319.94v18h261.16c-5.66-84.74-78.52-152.47-169.51-157.46-3.58-.21-7.2-.31-10.84-.31H786.13c82.81,0,150,62.58,150,139.79m-150-139.79h0"/></clipPath><linearGradient id="linear-gradient-4" x1="-0.86" y1="1080.46" x2="1.06" y2="1080.46" gradientTransform="matrix(102.01, 184.7, 184.7, -102.01, -198555.09, 110504.44)" xlink:href="#linear-gradient"/><clipPath id="clip-path-3"><path class="cls-1" d="M793.59,180.15H774.66V412.91q0,5.28.36,10.44H943.57V319.94c0-77.21-67.14-139.79-150-139.79h0"/></clipPath><linearGradient id="linear-gradient-5" x1="0.65" y1="1080.9" x2="2.56" y2="1080.9" gradientTransform="matrix(58.54, -84.22, -84.22, -58.54, 91822.92, 63666.63)" gradientUnits="userSpaceOnUse"><stop offset="0" stop-color="#231f20"/><stop offset="0.28" stop-color="#252122"/><stop offset="0.42" stop-color="#2d292a"/><stop offset="0.53" stop-color="#3a3637"/><stop offset="0.63" stop-color="#4d4a4a"/><stop offset="0.71" stop-color="#656263"/><stop offset="0.79" stop-color="#838181"/><stop offset="0.87" stop-color="#a6a5a5"/><stop offset="0.93" stop-color="#cfcece"/><stop offset="1" stop-color="#fcfcfc"/><stop offset="1" stop-color="#fff"/></linearGradient><clipPath id="clip-path-4"><path class="cls-3" d="M943.21,423.36H774.66c5.53,84.53,77.93,152.2,168.55,157.65,3.89.25,7.85.36,11.82.36h229.82c-82.85,0-150-62.58-150-139.8V423.35Z"/></clipPath><linearGradient id="linear-gradient-7" x1="-0.58" y1="1080.28" x2="1.36" y2="1080.28" gradientTransform="matrix(139.78, 157.4, 157.4, -139.78, -169140.66, 151412)" xlink:href="#linear-gradient-2"/><clipPath id="clip-path-5"><path class="cls-1" d="M1027.71,337.94V441.56c0,77.22,67.15,139.8,150,139.8h19.92v-.65l0-157.36V348.61c0-3.6-.12-7.17-.38-10.68Z"/></clipPath><linearGradient id="linear-gradient-8" x1="-0.99" y1="1080.32" x2="0.92" y2="1080.32" gradientTransform="matrix(-84, 135.27, 135.27, 84, -145043.88, -90259.47)" gradientUnits="userSpaceOnUse"><stop offset="0" stop-color="#231f20"/><stop offset="0.25" stop-color="#252122"/><stop offset="0.39" stop-color="#2d2a2b"/><stop offset="0.51" stop-color="#3b3839"/><stop offset="0.61" stop-color="#4f4c4c"/><stop offset="0.7" stop-color="#686566"/><stop offset="0.78" stop-color="#878586"/><stop offset="0.86" stop-color="#acabab"/><stop offset="0.94" stop-color="#d6d5d6"/><stop offset="1" stop-color="#fff"/></linearGradient></defs><title>Dim3nsion With Black Colour</title><rect width="1920" height="1079"/><g class="cls-4"><path class="cls-5" d="M571,631.27h21.86a15.22,15.22,0,0,1,8.33,2.76,16.93,16.93,0,0,1,6,6.52l10.93,22.12a25.94,25.94,0,0,1-.2,25l-11,21.86a16.87,16.87,0,0,1-6.06,6.75,16,16,0,0,1-8.82,2.53H570.89a5.31,5.31,0,0,1-3.92-1.64,5.41,5.41,0,0,1-1.61-3.89,5.58,5.58,0,0,1,1.61-4,5.23,5.23,0,0,1,3.92-1.68h5.8V642.46H571a5.21,5.21,0,0,1-3.91-1.68,5.55,5.55,0,0,1-1.62-4,5.36,5.36,0,0,1,1.62-3.89,5.25,5.25,0,0,1,3.91-1.64m16.73,11.19v65.25h3.87a5.91,5.91,0,0,0,5.52-3.62l10.93-21.73a17.74,17.74,0,0,0,2.06-7.17,14.93,14.93,0,0,0-1.64-6.84l-11.32-22.53a6.09,6.09,0,0,0-5.8-3.35Z"/><path class="cls-5" d="M652.47,631.26h44.78a5.34,5.34,0,0,1,3.85,1.65,5.26,5.26,0,0,1,1.68,3.89,5.49,5.49,0,0,1-1.65,4,5.24,5.24,0,0,1-3.88,1.68H680.52v65.25h16.73a5.5,5.5,0,0,1,5.53,5.53,5.28,5.28,0,0,1-1.65,3.92,5.37,5.37,0,0,1-3.88,1.61H652.47a5.53,5.53,0,1,1,0-11.06h17V642.46h-17a5.26,5.26,0,0,1-3.91-1.65,5.35,5.35,0,0,1-1.62-3.88,5.52,5.52,0,0,1,1.62-4,5.26,5.26,0,0,1,3.91-1.65"/><path class="cls-5" d="M750.78,665.64V662.8l-11.46-16.32v66.76a5.53,5.53,0,0,1-11.06,0v-82h14.31l13.58,19.83,14.05-19.83h14v82a5.23,5.23,0,0,1-1.68,3.92,5.58,5.58,0,0,1-4,1.61,5.62,5.62,0,0,1-5.54-5.53v-66.5l-11.19,15.8v3.1a5.53,5.53,0,0,1-11.06,0"/><path class="cls-5" d="M865.68,642.33v20.74a15.88,15.88,0,0,1-4.48,11.72A16.44,16.44,0,0,1,865.81,686v21.6a10.6,10.6,0,0,1-3.29,7.8,10.81,10.81,0,0,1-7.9,3.26H815.5a5.53,5.53,0,1,1,0-11.06h39V686a5.54,5.54,0,0,0-1.61-4,5.23,5.23,0,0,0-3.92-1.68H826.7a5.41,5.41,0,0,1-3.92-1.58,5.61,5.61,0,0,1,0-7.87,5.36,5.36,0,0,1,3.92-1.61h22.38a5.36,5.36,0,0,0,3.89-1.62,5.26,5.26,0,0,0,1.65-3.91v-21.4H815.11a5.54,5.54,0,1,1,0-11.07h39.51a10.62,10.62,0,0,1,7.83,3.26,10.73,10.73,0,0,1,3.23,7.81"/><path class="cls-5" d="M947.13,636.93v81.84H932.29l-29.81-67.95v62.42a5.53,5.53,0,1,1-11.06,0v-82H906l29.89,67.82V636.93a5.74,5.74,0,0,1,5.67-5.67,5.26,5.26,0,0,1,3.91,1.65,5.52,5.52,0,0,1,1.62,4"/><path class="cls-5" d="M985.33,631.26h28.81q5.26,0,10,4.45a14.25,14.25,0,0,1,4.71,10.77,5.4,5.4,0,0,1-1.68,4,5.2,5.2,0,0,1-3.72,1.65c-1.89,0-3.18-.43-3.88-1.29a13.39,13.39,0,0,1-2-4.77q-1-3.5-4.26-3.49H985.91c-1.32,0-2,.43-2,1.28a2.9,2.9,0,0,0,.81,1.86l41.13,52.44a13,13,0,0,1,3,8.16,12.21,12.21,0,0,1-3.59,8.69,10.87,10.87,0,0,1-8,3.75H987.42a15.23,15.23,0,0,1-14.68-14.42c0-4.12,1.93-6.19,5.79-6.19a5.12,5.12,0,0,1,3.82,1.62,5.19,5.19,0,0,1,1.58,3.78,4,4,0,0,0,1.22,3,4.2,4.2,0,0,0,3.06,1.18h27.53c1.18,0,1.78-.47,1.78-1.41a2.75,2.75,0,0,0-.81-1.72l-41.07-52.44a13.11,13.11,0,0,1-2.9-8.17,12.37,12.37,0,0,1,3.69-8.92,12,12,0,0,1,8.9-3.79"/><path class="cls-5" d="M1059.72,631.26h44.78a5.35,5.35,0,0,1,3.85,1.65,5.26,5.26,0,0,1,1.68,3.89,5.49,5.49,0,0,1-1.65,4,5.26,5.26,0,0,1-3.88,1.68h-16.73v65.25h16.73a5.51,5.51,0,0,1,5.53,5.53,5.28,5.28,0,0,1-1.65,3.92,5.38,5.38,0,0,1-3.88,1.61h-44.78a5.53,5.53,0,1,1,0-11.06h17V642.46h-17a5.28,5.28,0,0,1-3.92-1.65,5.38,5.38,0,0,1-1.61-3.88,5.55,5.55,0,0,1,1.61-4,5.28,5.28,0,0,1,3.92-1.65"/><path class="cls-5" d="M1137.17,669a16.54,16.54,0,0,0-1.57,6.85,15.84,15.84,0,0,0,1.57,6.91L1149,706.33a3.21,3.21,0,0,0,2.66,2.1v11.1a14,14,0,0,1-7.23-2.27,15,15,0,0,1-5.31-5.81l-12.24-24.55A23.79,23.79,0,0,1,1124.4,676a24.17,24.17,0,0,1,2.44-11l12.24-24.82q4-7.78,12.54-8.08v11.1a4.2,4.2,0,0,0-3,2.51Z"/><path class="cls-5" d="M1195.29,676a24.17,24.17,0,0,1-2.57,10.93l-12.19,24.55q-3.88,8.1-13.17,8.1c-.23,0-.47,0-.69,0v-11.1a3.11,3.11,0,0,0,.69.06,3.53,3.53,0,0,0,3.24-2.16l11.84-23.58a16.06,16.06,0,0,0,1.64-6.91,14.81,14.81,0,0,0-1.64-6.85l-11.58-23.31a3.69,3.69,0,0,0-3.5-2.57,3.93,3.93,0,0,0-.69.06v-11.1c.22,0,.46,0,.69,0q9.23,0,13.17,8.1L1192.72,665a24,24,0,0,1,2.57,11"/><path class="cls-5" d="M1272.93,636.93v81.84h-14.84l-29.81-67.95v62.42a5.53,5.53,0,1,1-11.06,0v-82h14.62l29.89,67.82V636.93a5.74,5.74,0,0,1,5.67-5.67,5.26,5.26,0,0,1,3.91,1.65,5.52,5.52,0,0,1,1.62,4"/><path class="cls-5" d="M1311.13,631.26h28.81q5.26,0,10,4.45a14.25,14.25,0,0,1,4.71,10.77,5.4,5.4,0,0,1-1.68,4,5.2,5.2,0,0,1-3.72,1.65c-1.89,0-3.18-.43-3.89-1.29a13.77,13.77,0,0,1-2-4.77q-.94-3.5-4.25-3.49h-27.38c-1.32,0-2,.43-2,1.28a2.9,2.9,0,0,0,.81,1.86l41.13,52.44a13,13,0,0,1,3,8.16,12.21,12.21,0,0,1-3.59,8.69,10.87,10.87,0,0,1-8,3.75h-29.83a15.23,15.23,0,0,1-14.68-14.42c0-4.12,1.93-6.19,5.79-6.19a5.12,5.12,0,0,1,3.82,1.62,5.19,5.19,0,0,1,1.58,3.78,4,4,0,0,0,1.22,3,4.2,4.2,0,0,0,3.06,1.18h27.53q1.77,0,1.77-1.41a2.64,2.64,0,0,0-.81-1.72l-41.06-52.44a13.11,13.11,0,0,1-2.9-8.17,12.37,12.37,0,0,1,3.69-8.92,12,12,0,0,1,8.9-3.79"/></g><path class="cls-2" d="M936.09,319.94v18h261.16c-5.66-84.74-78.52-152.47-169.51-157.46-3.58-.21-7.2-.31-10.84-.31H786.13c82.81,0,150,62.58,150,139.79m-150-139.79h0"/><g class="cls-6"><polygon class="cls-7" points="1101.15 17.98 1268.9 301.06 882.2 500.11 714.46 217.03 1101.15 17.98"/></g><g class="cls-8"><polygon class="cls-9" points="652.36 344.13 829.68 106.37 1065.86 259.37 888.55 497.14 652.36 344.13"/></g><path class="cls-3" d="M943.21,423.36H774.66c5.53,84.53,77.93,152.2,168.55,157.65,3.89.25,7.85.36,11.82.36h229.82c-82.85,0-150-62.58-150-139.8V423.35Z"/><g class="cls-10"><polygon class="cls-11" points="1003.99 233.53 1269.02 511.69 955.51 771.18 690.49 493.02 1003.99 233.53"/></g><g class="cls-12"><polygon class="cls-13" points="1314.67 405.67 1150.34 652.33 910.66 513.62 1074.99 266.96 1314.67 405.67"/></g></svg>